<?xml version="1.0" encoding="UTF-8"?>
<svg viewBox="0 0 200 240" xmlns="http://www.w3.org/2000/svg">
    <g transform="translate(100, 80)">
        <path d="M 50,0 Q 35,-35 0,-50 Q -35,-35 -50,0 Q -35,35 0,50 Q 35,35 50,0"
              fill="none" stroke="#2D2F7F" stroke-width="3"/>
        <path d="M 35,0 Q 25,-25 0,-35 Q -25,-25 -35,0 Q -25,25 0,35 Q 25,25 35,0"
              fill="none" stroke="#6A6DFF" stroke-width="2.5"/>
        <path d="M 20,0 Q 14,-14 0,-20 Q -14,-14 -20,0 Q -14,14 0,20 Q 14,14 20,0"
              fill="none" stroke="#1FA2A0" stroke-width="2"/>
        <path d="M 0,-50 C 10,-45 15,-40 18,-35" fill="none" stroke="#6A6DFF" stroke-width="1.5"/>
        <path d="M 50,0 C 45,10 40,15 35,18" fill="none" stroke="#6A6DFF" stroke-width="1.5"/>
        <path d="M 0,50 C -10,45 -15,40 -18,35" fill="none" stroke="#6A6DFF" stroke-width="1.5"/>
        <path d="M -50,0 C -45,-10 -40,-15 -35,-18" fill="none" stroke="#6A6DFF" stroke-width="1.5"/>
        <circle cx="0" cy="0" r="6" fill="#1FA2A0"/>
        <circle cx="0" cy="0" r="2" fill="#E8F7F6"/>
    </g>
    <text x="100" y="190" text-anchor="middle" font-family="Arial, sans-serif" font-size="24" font-weight="300" fill="#2D2F7F" letter-spacing="2">Celestryll</text>
</svg>
