<?xml version="1.0" encoding="UTF-8"?>
<svg viewBox="0 0 200 240" xmlns="http://www.w3.org/2000/svg">
    <g transform="translate(100, 80)">
        <circle cx="0" cy="0" r="50" fill="none" stroke="#2D2F7F" stroke-width="2"/>
        <line x1="0" y1="-40" x2="0" y2="-25" stroke="#6A6DFF" stroke-width="2.5"/>
        <line x1="0" y1="25" x2="0" y2="40" stroke="#6A6DFF" stroke-width="2.5"/>
        <line x1="-40" y1="0" x2="-25" y2="0" stroke="#6A6DFF" stroke-width="2.5"/>
        <line x1="25" y1="0" x2="40" y2="0" stroke="#6A6DFF" stroke-width="2.5"/>
        <line x1="-28" y1="-28" x2="-18" y2="-18" stroke="#1FA2A0" stroke-width="2"/>
        <line x1="18" y1="18" x2="28" y2="28" stroke="#1FA2A0" stroke-width="2"/>
        <line x1="28" y1="-28" x2="18" y2="-18" stroke="#1FA2A0" stroke-width="2"/>
        <line x1="-18" y1="18" x2="-28" y2="28" stroke="#1FA2A0" stroke-width="2"/>
        <path d="M 0,-20 L 17,-10 L 17,10 L 0,20 L -17,10 L -17,-10 Z"
              fill="none" stroke="#2D2F7F" stroke-width="2"/>
        <circle cx="0" cy="-40" r="3" fill="#6A6DFF"/>
        <circle cx="40" cy="0" r="3" fill="#6A6DFF"/>
        <circle cx="0" cy="40" r="3" fill="#6A6DFF"/>
        <circle cx="-40" cy="0" r="3" fill="#6A6DFF"/>
        <circle cx="0" cy="-20" r="2.5" fill="#1FA2A0"/>
        <circle cx="17" cy="-10" r="2.5" fill="#1FA2A0"/>
        <circle cx="17" cy="10" r="2.5" fill="#1FA2A0"/>
        <circle cx="0" cy="20" r="2.5" fill="#1FA2A0"/>
        <circle cx="-17" cy="10" r="2.5" fill="#1FA2A0"/>
        <circle cx="-17" cy="-10" r="2.5" fill="#1FA2A0"/>
        <circle cx="0" cy="0" r="6" fill="#1FA2A0"/>
        <circle cx="0" cy="0" r="3" fill="#2D2F7F"/>
    </g>
    <text x="100" y="190" text-anchor="middle" font-family="Arial, sans-serif" font-size="24" font-weight="300" fill="#2D2F7F" letter-spacing="2">Celestryll</text>
</svg>
