<?xml version="1.0" encoding="UTF-8"?>
<svg viewBox="0 0 200 240" xmlns="http://www.w3.org/2000/svg">
    <g transform="translate(100, 80)">
        <!-- Top half (midnight blue) - opens right -->
        <path d="M -42,0 A 42,42 0 0,1 0,-42 A 42,42 0 0,1 42,0
                 A 35,35 0 0,0 0,-35 A 35,35 0 0,0 -35,0 Z"
              fill="#0F1A2B"/>
        <!-- Bottom half (teal) - opens right -->
        <path d="M -42,0 A 42,42 0 0,0 0,42 A 42,42 0 0,0 42,0
                 A 35,35 0 0,1 0,35 A 35,35 0 0,1 -35,0 Z"
              fill="#1FA2A0"/>
        <!-- Star accents on left curve -->
        <circle cx="-32" cy="-26" r="3" fill="#E8F7F6"/>
        <circle cx="-32" cy="26" r="3" fill="#E8F7F6"/>
        <circle cx="-20" cy="0" r="3" fill="#E8F7F6"/>
    </g>
    <text x="100" y="190" text-anchor="middle" font-family="Arial, sans-serif" font-size="24" font-weight="300" fill="#0F1A2B" letter-spacing="2">Celestryll</text>
</svg>
