<?xml version="1.0" encoding="UTF-8"?>
<svg viewBox="0 0 200 240" xmlns="http://www.w3.org/2000/svg">
    <g transform="translate(100, 80) rotate(-45)">
        <!-- Subtle crescent outline opening right -->
        <path d="M -40,0 A 40,40 0 1,1 40,0 A 33,33 0 1,0 -33,0 Z"
              fill="none" stroke="#0F1A2B" stroke-width="2.5"/>
        <!-- Star constellation forming C-shape on left curve -->
        <circle cx="0" cy="-38" r="3.5" fill="#1FA2A0"/>
        <circle cx="-18" cy="-33" r="3" fill="#6A6DFF"/>
        <circle cx="-28" cy="-28" r="3.5" fill="#1FA2A0"/>
        <circle cx="-35" cy="-20" r="3" fill="#6A6DFF"/>
        <circle cx="-38" cy="-10" r="4" fill="#1FA2A0"/>
        <circle cx="-40" cy="0" r="3.5" fill="#6A6DFF"/>
        <circle cx="-38" cy="10" r="4" fill="#1FA2A0"/>
        <circle cx="-35" cy="20" r="3" fill="#6A6DFF"/>
        <circle cx="-28" cy="28" r="3.5" fill="#1FA2A0"/>
        <circle cx="-18" cy="33" r="3" fill="#6A6DFF"/>
        <circle cx="0" cy="38" r="3.5" fill="#1FA2A0"/>
        <!-- Connection lines -->
        <path d="M 0,-38 L -18,-33 L -28,-28 L -35,-20 L -38,-10 L -40,0 L -38,10 L -35,20 L -28,28 L -18,33 L 0,38"
              fill="none" stroke="#6A6DFF" stroke-width="1" opacity="0.5"/>
    </g>
    <text x="100" y="190" text-anchor="middle" font-family="Arial, sans-serif" font-size="24" font-weight="300" fill="#0F1A2B" letter-spacing="2">Celestryll</text>
</svg>
