<?xml version="1.0" encoding="UTF-8"?>
<svg viewBox="0 0 200 240" xmlns="http://www.w3.org/2000/svg">
    <g transform="translate(100, 80)">
        <!-- Geometric crescent opening right -->
        <path d="M 0,-45 L -25,-35 L -35,-25 L -42,-10 L -45,0 L -42,10 L -35,25 L -25,35 L 0,45
                 L 0,38 L -5,30 L -8,20 L -10,10 L -10,0 L -10,-10 L -8,-20 L -5,-30 L 0,-38 Z"
              fill="#2D2F7F"/>
        <!-- Inner geometric highlights -->
        <path d="M -30,-8 L -25,-15 L -20,-8 L -25,0 Z" fill="#1FA2A0"/>
        <path d="M -30,8 L -25,0 L -20,8 L -25,15 Z" fill="#1FA2A0"/>
        <!-- Tech dots on left edge -->
        <circle cx="-30" cy="-25" r="2.5" fill="#6A6DFF"/>
        <circle cx="-35" cy="0" r="2.5" fill="#6A6DFF"/>
        <circle cx="-30" cy="25" r="2.5" fill="#6A6DFF"/>
    </g>
    <text x="100" y="190" text-anchor="middle" font-family="Arial, sans-serif" font-size="24" font-weight="300" fill="#2D2F7F" letter-spacing="2">Celestryll</text>
</svg>
